<?xml version="1.0" encoding="UTF-8"?>
<svg width="1600" height="980" viewBox="0 0 1600 980" fill="none" xmlns="http://www.w3.org/2000/svg">
  <defs>
    <linearGradient id="pageBg" x1="0" y1="0" x2="1600" y2="980" gradientUnits="userSpaceOnUse">
      <stop stop-color="#F8FBFF"/>
      <stop offset="1" stop-color="#FFF7ED"/>
    </linearGradient>
    <linearGradient id="orangeGrad" x1="0" y1="0" x2="1" y2="1">
      <stop stop-color="#FB923C"/>
      <stop offset="1" stop-color="#EA580C"/>
    </linearGradient>
    <linearGradient id="blueGrad" x1="0" y1="0" x2="1" y2="1">
      <stop stop-color="#60A5FA"/>
      <stop offset="1" stop-color="#2563EB"/>
    </linearGradient>
    <linearGradient id="emeraldGrad" x1="0" y1="0" x2="1" y2="1">
      <stop stop-color="#34D399"/>
      <stop offset="1" stop-color="#059669"/>
    </linearGradient>
    <filter id="softShadow" x="-20%" y="-20%" width="140%" height="140%" color-interpolation-filters="sRGB">
      <feDropShadow dx="0" dy="10" stdDeviation="14" flood-color="#0F172A" flood-opacity="0.10"/>
    </filter>
  </defs>

  <rect width="1600" height="980" fill="url(#pageBg)"/>
  <rect x="30" y="24" width="1540" height="932" rx="30" fill="#F8FAFC" stroke="#E2E8F0"/>

  <!-- Header -->
  <rect x="56" y="46" width="1488" height="82" rx="20" fill="#FFFFFF" stroke="#E2E8F0" filter="url(#softShadow)"/>
  <circle cx="98" cy="87" r="20" fill="url(#orangeGrad)"/>
  <text x="132" y="83" fill="#F97316" font-family="Poppins, Arial, sans-serif" font-size="24" font-weight="700">Get</text>
  <text x="175" y="83" fill="#0F172A" font-family="Poppins, Arial, sans-serif" font-size="24" font-weight="700">Go</text>
  <text x="133" y="102" fill="#64748B" font-family="Poppins, Arial, sans-serif" font-size="10" letter-spacing="0.9">MARKETPLACE PREVIEW</text>

  <rect x="488" y="66" width="92" height="42" rx="12" fill="url(#orangeGrad)"/>
  <text x="534" y="92" text-anchor="middle" fill="#FFFFFF" font-family="Poppins, Arial, sans-serif" font-size="14" font-weight="600">Home</text>
  <rect x="590" y="66" width="102" height="42" rx="12" fill="#FFFFFF" stroke="#E2E8F0"/>
  <text x="641" y="92" text-anchor="middle" fill="#475569" font-family="Poppins, Arial, sans-serif" font-size="14">Tracking</text>
  <rect x="702" y="66" width="92" height="42" rx="12" fill="#FFFFFF" stroke="#E2E8F0"/>
  <text x="748" y="92" text-anchor="middle" fill="#475569" font-family="Poppins, Arial, sans-serif" font-size="14">Alerts</text>
  <rect x="804" y="66" width="96" height="42" rx="12" fill="#FFFFFF" stroke="#E2E8F0"/>
  <text x="852" y="92" text-anchor="middle" fill="#475569" font-family="Poppins, Arial, sans-serif" font-size="14">Profile</text>

  <rect x="1278" y="66" width="184" height="42" rx="21" fill="#FFF7ED" stroke="#FED7AA"/>
  <text x="1370" y="92" text-anchor="middle" fill="#C2410C" font-family="Poppins, Arial, sans-serif" font-size="13" font-weight="600">Sign up to unlock full details</text>

  <!-- Sidebar -->
  <rect x="56" y="146" width="280" height="786" rx="20" fill="#FFFFFF" stroke="#E2E8F0" filter="url(#softShadow)"/>
  <text x="84" y="182" fill="#0F172A" font-family="Poppins, Arial, sans-serif" font-size="16" font-weight="700">Marketplace Pulse</text>
  <text x="84" y="202" fill="#64748B" font-family="Poppins, Arial, sans-serif" font-size="12">Anonymized activity for guest preview</text>

  <rect x="84" y="222" width="108" height="40" rx="12" fill="url(#orangeGrad)"/>
  <text x="138" y="247" text-anchor="middle" fill="#FFFFFF" font-family="Poppins, Arial, sans-serif" font-size="13" font-weight="600">Cargo</text>
  <rect x="202" y="222" width="106" height="40" rx="12" fill="#FFFFFF" stroke="#E2E8F0"/>
  <text x="255" y="247" text-anchor="middle" fill="#475569" font-family="Poppins, Arial, sans-serif" font-size="13">Trucks</text>

  <rect x="84" y="280" width="224" height="92" rx="14" fill="#F8FAFC" stroke="#E2E8F0"/>
  <text x="102" y="307" fill="#94A3B8" font-family="Poppins, Arial, sans-serif" font-size="11" font-weight="600">OPEN CARGO LISTINGS</text>
  <text x="102" y="345" fill="#0F172A" font-family="Poppins, Arial, sans-serif" font-size="34" font-weight="700">1,280</text>
  <text x="290" y="343" text-anchor="end" fill="#16A34A" font-family="Poppins, Arial, sans-serif" font-size="13" font-weight="600">+12.4%</text>

  <rect x="84" y="386" width="224" height="92" rx="14" fill="#F8FAFC" stroke="#E2E8F0"/>
  <text x="102" y="413" fill="#94A3B8" font-family="Poppins, Arial, sans-serif" font-size="11" font-weight="600">AVAILABLE TRUCKS</text>
  <text x="102" y="451" fill="#0F172A" font-family="Poppins, Arial, sans-serif" font-size="34" font-weight="700">940</text>
  <text x="290" y="449" text-anchor="end" fill="#2563EB" font-family="Poppins, Arial, sans-serif" font-size="13" font-weight="600">Nationwide</text>

  <rect x="84" y="492" width="224" height="92" rx="14" fill="#F8FAFC" stroke="#E2E8F0"/>
  <text x="102" y="519" fill="#94A3B8" font-family="Poppins, Arial, sans-serif" font-size="11" font-weight="600">LIVE SHIPMENTS</text>
  <text x="102" y="557" fill="#0F172A" font-family="Poppins, Arial, sans-serif" font-size="34" font-weight="700">326</text>
  <text x="290" y="555" text-anchor="end" fill="#EA580C" font-family="Poppins, Arial, sans-serif" font-size="13" font-weight="600">Updated now</text>

  <rect x="84" y="616" width="224" height="126" rx="14" fill="#FFFBEB" stroke="#FCD34D"/>
  <text x="102" y="642" fill="#92400E" font-family="Poppins, Arial, sans-serif" font-size="11" font-weight="700">GUEST PREVIEW</text>
  <text x="102" y="664" fill="#78350F" font-family="Poppins, Arial, sans-serif" font-size="13">Listings are anonymized.</text>
  <text x="102" y="684" fill="#78350F" font-family="Poppins, Arial, sans-serif" font-size="13">Tap any action to sign up</text>
  <text x="102" y="704" fill="#78350F" font-family="Poppins, Arial, sans-serif" font-size="13">and access full details.</text>
  <rect x="102" y="716" width="188" height="34" rx="10" fill="url(#orangeGrad)"/>
  <text x="196" y="738" text-anchor="middle" fill="#FFFFFF" font-family="Poppins, Arial, sans-serif" font-size="13" font-weight="600">Create Free Account</text>

  <!-- Main content -->
  <rect x="356" y="146" width="1188" height="786" rx="20" fill="#FFFFFF" stroke="#E2E8F0" filter="url(#softShadow)"/>

  <rect x="382" y="170" width="744" height="50" rx="25" fill="#FFFFFF" stroke="#CBD5E1"/>
  <text x="416" y="201" fill="#94A3B8" font-family="Poppins, Arial, sans-serif" font-size="14">Search by route, cargo type, or shipper alias...</text>
  <circle cx="1100" cy="195" r="14" fill="#F1F5F9"/>

  <rect x="1138" y="170" width="82" height="50" rx="25" fill="url(#orangeGrad)"/>
  <text x="1179" y="201" text-anchor="middle" fill="#FFFFFF" font-family="Poppins, Arial, sans-serif" font-size="13" font-weight="600">All</text>
  <rect x="1230" y="170" width="86" height="50" rx="25" fill="#FFFFFF" stroke="#E2E8F0"/>
  <text x="1273" y="201" text-anchor="middle" fill="#475569" font-family="Poppins, Arial, sans-serif" font-size="13">Open</text>
  <rect x="1326" y="170" width="106" height="50" rx="25" fill="#FFFFFF" stroke="#E2E8F0"/>
  <text x="1379" y="201" text-anchor="middle" fill="#475569" font-family="Poppins, Arial, sans-serif" font-size="13">In Transit</text>

  <rect x="382" y="236" width="1136" height="84" rx="14" fill="#ECFEFF" stroke="#A5F3FC"/>
  <text x="404" y="264" fill="#0F766E" font-family="Poppins, Arial, sans-serif" font-size="14" font-weight="700">Guest Preview Mode: 2,220 anonymized listings displayed</text>
  <text x="404" y="285" fill="#155E75" font-family="Poppins, Arial, sans-serif" font-size="12">You can browse routes and prices instantly. Action clicks prompt secure sign-up.</text>
  <rect x="1320" y="252" width="176" height="50" rx="12" fill="url(#orangeGrad)"/>
  <text x="1408" y="283" text-anchor="middle" fill="#FFFFFF" font-family="Poppins, Arial, sans-serif" font-size="13" font-weight="600">Unlock Marketplace</text>

  <text x="382" y="354" fill="#0F172A" font-family="Poppins, Arial, sans-serif" font-size="24" font-weight="700">Available Cargo</text>
  <text x="382" y="377" fill="#64748B" font-family="Poppins, Arial, sans-serif" font-size="13">1,280 active anonymized cargo offers</text>

  <!-- Card row 1 -->
  <rect x="382" y="392" width="360" height="236" rx="16" fill="#FFFFFF" stroke="#E2E8F0"/>
  <rect x="382" y="392" width="360" height="5" rx="16" fill="url(#orangeGrad)"/>
  <rect x="400" y="410" width="92" height="26" rx="13" fill="#FFF7ED"/>
  <text x="446" y="427" text-anchor="middle" fill="#C2410C" font-family="Poppins, Arial, sans-serif" font-size="10" font-weight="700">OPEN</text>
  <rect x="620" y="408" width="104" height="32" rx="10" fill="url(#orangeGrad)"/>
  <text x="672" y="429" text-anchor="middle" fill="#FFFFFF" font-family="Poppins, Arial, sans-serif" font-size="14" font-weight="700">PHP 98,000</text>
  <text x="400" y="466" fill="#0F172A" font-family="Poppins, Arial, sans-serif" font-size="17" font-weight="700">Shipper Atlas-01</text>
  <text x="400" y="490" fill="#334155" font-family="Poppins, Arial, sans-serif" font-size="13">Davao City to Manila</text>
  <text x="400" y="514" fill="#64748B" font-family="Poppins, Arial, sans-serif" font-size="12">21 tons | 977 km | 20 hrs</text>
  <rect x="400" y="536" width="156" height="36" rx="10" fill="url(#blueGrad)"/>
  <text x="478" y="559" text-anchor="middle" fill="#FFFFFF" font-family="Poppins, Arial, sans-serif" font-size="12" font-weight="600">View Details</text>
  <rect x="568" y="536" width="156" height="36" rx="10" fill="#FFFFFF" stroke="#CBD5E1"/>
  <text x="646" y="559" text-anchor="middle" fill="#334155" font-family="Poppins, Arial, sans-serif" font-size="12">Contact</text>
  <text x="400" y="596" fill="#16A34A" font-family="Poppins, Arial, sans-serif" font-size="12" font-weight="600">6 bids active</text>

  <rect x="768" y="392" width="360" height="236" rx="16" fill="#FFFFFF" stroke="#E2E8F0"/>
  <rect x="768" y="392" width="360" height="5" rx="16" fill="url(#emeraldGrad)"/>
  <rect x="786" y="410" width="104" height="26" rx="13" fill="#ECFDF5"/>
  <text x="838" y="427" text-anchor="middle" fill="#047857" font-family="Poppins, Arial, sans-serif" font-size="10" font-weight="700">NEGOTIATING</text>
  <rect x="1006" y="408" width="104" height="32" rx="10" fill="url(#orangeGrad)"/>
  <text x="1058" y="429" text-anchor="middle" fill="#FFFFFF" font-family="Poppins, Arial, sans-serif" font-size="14" font-weight="700">PHP 76,000</text>
  <text x="786" y="466" fill="#0F172A" font-family="Poppins, Arial, sans-serif" font-size="17" font-weight="700">Shipper Northwind-07</text>
  <text x="786" y="490" fill="#334155" font-family="Poppins, Arial, sans-serif" font-size="13">Cebu City to Cagayan de Oro</text>
  <text x="786" y="514" fill="#64748B" font-family="Poppins, Arial, sans-serif" font-size="12">15 tons | 255 km | 6 hrs</text>
  <rect x="786" y="536" width="156" height="36" rx="10" fill="url(#blueGrad)"/>
  <text x="864" y="559" text-anchor="middle" fill="#FFFFFF" font-family="Poppins, Arial, sans-serif" font-size="12" font-weight="600">View Details</text>
  <rect x="954" y="536" width="156" height="36" rx="10" fill="#FFFFFF" stroke="#CBD5E1"/>
  <text x="1032" y="559" text-anchor="middle" fill="#334155" font-family="Poppins, Arial, sans-serif" font-size="12">Contact</text>
  <text x="786" y="596" fill="#EA580C" font-family="Poppins, Arial, sans-serif" font-size="12" font-weight="600">2 bids active</text>

  <rect x="1154" y="392" width="364" height="236" rx="16" fill="#FFFFFF" stroke="#E2E8F0"/>
  <rect x="1154" y="392" width="364" height="5" rx="16" fill="url(#blueGrad)"/>
  <rect x="1172" y="410" width="86" height="26" rx="13" fill="#EFF6FF"/>
  <text x="1215" y="427" text-anchor="middle" fill="#1D4ED8" font-family="Poppins, Arial, sans-serif" font-size="10" font-weight="700">WAITING</text>
  <rect x="1392" y="408" width="108" height="32" rx="10" fill="url(#orangeGrad)"/>
  <text x="1446" y="429" text-anchor="middle" fill="#FFFFFF" font-family="Poppins, Arial, sans-serif" font-size="14" font-weight="700">PHP 112,000</text>
  <text x="1172" y="466" fill="#0F172A" font-family="Poppins, Arial, sans-serif" font-size="17" font-weight="700">Shipper Harbor-14</text>
  <text x="1172" y="490" fill="#334155" font-family="Poppins, Arial, sans-serif" font-size="13">Bacolod to Quezon City</text>
  <text x="1172" y="514" fill="#64748B" font-family="Poppins, Arial, sans-serif" font-size="12">18 tons | 692 km | 14 hrs</text>
  <rect x="1172" y="536" width="160" height="36" rx="10" fill="url(#blueGrad)"/>
  <text x="1252" y="559" text-anchor="middle" fill="#FFFFFF" font-family="Poppins, Arial, sans-serif" font-size="12" font-weight="600">View Details</text>
  <rect x="1344" y="536" width="156" height="36" rx="10" fill="#FFFFFF" stroke="#CBD5E1"/>
  <text x="1422" y="559" text-anchor="middle" fill="#334155" font-family="Poppins, Arial, sans-serif" font-size="12">Contact</text>
  <text x="1172" y="596" fill="#16A34A" font-family="Poppins, Arial, sans-serif" font-size="12" font-weight="600">9 bids active</text>

  <!-- Card row 2 condensed to imply volume -->
  <rect x="382" y="648" width="1136" height="78" rx="14" fill="#F8FAFC" stroke="#E2E8F0"/>
  <text x="408" y="678" fill="#334155" font-family="Poppins, Arial, sans-serif" font-size="13">Shipper Nova-11 | General Santos to Iloilo City | 24 tons | PHP 134,000 | 11 bids</text>
  <text x="408" y="702" fill="#64748B" font-family="Poppins, Arial, sans-serif" font-size="12">Shipper Vertex-27 | Naga to Calamba | 12 tons | PHP 58,000 | 3 bids | updated 2 mins ago</text>

  <rect x="382" y="738" width="1136" height="78" rx="14" fill="#F8FAFC" stroke="#E2E8F0"/>
  <text x="408" y="768" fill="#334155" font-family="Poppins, Arial, sans-serif" font-size="13">Shipper Maple-19 | Legazpi to Pasig | 10 tons | PHP 69,000 | 4 bids</text>
  <text x="408" y="792" fill="#64748B" font-family="Poppins, Arial, sans-serif" font-size="12">Shipper Orion-03 | Zamboanga to Cebu City | 19 tons | PHP 119,000 | 7 bids | updated now</text>

  <rect x="382" y="834" width="1136" height="74" rx="14" fill="#111827"/>
  <text x="410" y="864" fill="#F9FAFB" font-family="Poppins, Arial, sans-serif" font-size="14" font-weight="600">Action locked for guests</text>
  <text x="410" y="886" fill="#D1D5DB" font-family="Poppins, Arial, sans-serif" font-size="12">Clicking bid/contact/details opens phone OTP sign-up flow.</text>
  <rect x="1308" y="850" width="190" height="44" rx="12" fill="url(#orangeGrad)"/>
  <text x="1403" y="878" text-anchor="middle" fill="#FFFFFF" font-family="Poppins, Arial, sans-serif" font-size="13" font-weight="600">Sign up in 30 seconds</text>
</svg>
