<?xml version="1.0" encoding="UTF-8"?>
<svg width="1440" height="960" viewBox="0 0 1440 960" fill="none" xmlns="http://www.w3.org/2000/svg">
  <defs>
    <linearGradient id="bgGradient" x1="0" y1="0" x2="1440" y2="960" gradientUnits="userSpaceOnUse">
      <stop stop-color="#F7FAFF"/>
      <stop offset="1" stop-color="#FFF7EF"/>
    </linearGradient>

    <linearGradient id="headerGlass" x1="120" y1="34" x2="1320" y2="108" gradientUnits="userSpaceOnUse">
      <stop stop-color="#FFFFFF" stop-opacity="0.92"/>
      <stop offset="1" stop-color="#FFFDF9" stop-opacity="0.88"/>
    </linearGradient>

    <linearGradient id="activeOrange" x1="0" y1="0" x2="1" y2="1">
      <stop stop-color="#F97316"/>
      <stop offset="1" stop-color="#EA580C"/>
    </linearGradient>

    <linearGradient id="activeBlue" x1="0" y1="0" x2="1" y2="1">
      <stop stop-color="#3B82F6"/>
      <stop offset="1" stop-color="#1D4ED8"/>
    </linearGradient>

    <linearGradient id="activeEmerald" x1="0" y1="0" x2="1" y2="1">
      <stop stop-color="#10B981"/>
      <stop offset="1" stop-color="#059669"/>
    </linearGradient>

    <filter id="softShadow" x="-20%" y="-20%" width="140%" height="140%" color-interpolation-filters="sRGB">
      <feDropShadow dx="0" dy="8" stdDeviation="12" flood-color="#0F172A" flood-opacity="0.08"/>
    </filter>

    <filter id="tinyShadow" x="-30%" y="-30%" width="160%" height="160%" color-interpolation-filters="sRGB">
      <feDropShadow dx="0" dy="3" stdDeviation="5" flood-color="#0F172A" flood-opacity="0.10"/>
    </filter>
  </defs>

  <rect width="1440" height="960" fill="url(#bgGradient)"/>

  <!-- App container -->
  <rect x="40" y="24" width="1360" height="912" rx="28" fill="#F8FAFC" stroke="#E2E8F0"/>

  <!-- Header -->
  <rect x="64" y="44" width="1312" height="76" rx="20" fill="url(#headerGlass)" stroke="#E5E7EB" filter="url(#tinyShadow)"/>

  <!-- Logo -->
  <circle cx="108" cy="82" r="20" fill="url(#activeOrange)"/>
  <text x="145" y="79" fill="#F97316" font-family="Poppins, Arial, sans-serif" font-size="22" font-weight="700">Get</text>
  <text x="186" y="79" fill="#0F172A" font-family="Poppins, Arial, sans-serif" font-size="22" font-weight="700">Go</text>
  <text x="146" y="97" fill="#64748B" font-family="Poppins, Arial, sans-serif" font-size="10" font-weight="500" letter-spacing="0.9">YOUR CARGO MARKETPLACE</text>

  <!-- Desktop top nav -->
  <rect x="430" y="62" width="84" height="40" rx="12" fill="url(#activeOrange)"/>
  <text x="472" y="87" text-anchor="middle" fill="#FFFFFF" font-family="Poppins, Arial, sans-serif" font-size="14" font-weight="600">Home</text>

  <rect x="522" y="62" width="96" height="40" rx="12" fill="#FFFFFF" stroke="#E2E8F0"/>
  <text x="570" y="87" text-anchor="middle" fill="#475569" font-family="Poppins, Arial, sans-serif" font-size="14" font-weight="500">Tracking</text>

  <rect x="626" y="62" width="88" height="40" rx="12" fill="#FFFFFF" stroke="#E2E8F0"/>
  <text x="670" y="87" text-anchor="middle" fill="#475569" font-family="Poppins, Arial, sans-serif" font-size="14" font-weight="500">Alerts</text>

  <rect x="722" y="62" width="90" height="40" rx="12" fill="#FFFFFF" stroke="#E2E8F0"/>
  <text x="767" y="87" text-anchor="middle" fill="#475569" font-family="Poppins, Arial, sans-serif" font-size="14" font-weight="500">Profile</text>

  <!-- Right actions -->
  <circle cx="1240" cy="82" r="17" fill="#F1F5F9" stroke="#E2E8F0"/>
  <circle cx="1290" cy="82" r="17" fill="url(#activeBlue)"/>
  <text x="1290" y="87" text-anchor="middle" fill="#FFFFFF" font-family="Poppins, Arial, sans-serif" font-size="13" font-weight="700">J</text>

  <!-- Sidebar -->
  <rect x="64" y="138" width="250" height="770" rx="20" fill="#FFFFFF" stroke="#E2E8F0" filter="url(#softShadow)"/>

  <text x="88" y="176" fill="#0F172A" font-family="Poppins, Arial, sans-serif" font-size="15" font-weight="700">Marketplace</text>
  <text x="88" y="196" fill="#64748B" font-family="Poppins, Arial, sans-serif" font-size="12">Switch between cargo and trucks</text>

  <rect x="88" y="214" width="98" height="38" rx="12" fill="url(#activeOrange)"/>
  <text x="137" y="238" text-anchor="middle" fill="#FFFFFF" font-family="Poppins, Arial, sans-serif" font-size="13" font-weight="600">Cargo</text>

  <rect x="194" y="214" width="96" height="38" rx="12" fill="#FFFFFF" stroke="#E2E8F0"/>
  <text x="242" y="238" text-anchor="middle" fill="#475569" font-family="Poppins, Arial, sans-serif" font-size="13" font-weight="500">Trucks</text>

  <rect x="88" y="276" width="202" height="78" rx="14" fill="#F8FAFC" stroke="#E2E8F0"/>
  <text x="104" y="302" fill="#94A3B8" font-family="Poppins, Arial, sans-serif" font-size="11" font-weight="600">OPEN CARGO</text>
  <text x="104" y="333" fill="#0F172A" font-family="Poppins, Arial, sans-serif" font-size="28" font-weight="700">124</text>
  <text x="250" y="332" text-anchor="end" fill="#16A34A" font-family="Poppins, Arial, sans-serif" font-size="12" font-weight="600">+8 today</text>

  <rect x="88" y="368" width="202" height="78" rx="14" fill="#F8FAFC" stroke="#E2E8F0"/>
  <text x="104" y="394" fill="#94A3B8" font-family="Poppins, Arial, sans-serif" font-size="11" font-weight="600">ACTIVE SHIPMENTS</text>
  <text x="104" y="425" fill="#0F172A" font-family="Poppins, Arial, sans-serif" font-size="28" font-weight="700">23</text>
  <text x="250" y="424" text-anchor="end" fill="#2563EB" font-family="Poppins, Arial, sans-serif" font-size="12" font-weight="600">live tracking</text>

  <text x="88" y="488" fill="#0F172A" font-family="Poppins, Arial, sans-serif" font-size="13" font-weight="700">Quick Actions</text>

  <rect x="88" y="506" width="202" height="42" rx="12" fill="url(#activeOrange)"/>
  <text x="189" y="532" text-anchor="middle" fill="#FFFFFF" font-family="Poppins, Arial, sans-serif" font-size="13" font-weight="600">Post Listing</text>

  <rect x="88" y="558" width="202" height="42" rx="12" fill="#FFFFFF" stroke="#E2E8F0"/>
  <text x="189" y="584" text-anchor="middle" fill="#334155" font-family="Poppins, Arial, sans-serif" font-size="13" font-weight="500">My Bids</text>

  <rect x="88" y="610" width="202" height="42" rx="12" fill="#FFFFFF" stroke="#E2E8F0"/>
  <text x="189" y="636" text-anchor="middle" fill="#334155" font-family="Poppins, Arial, sans-serif" font-size="13" font-weight="500">Contracts</text>

  <rect x="88" y="770" width="202" height="110" rx="14" fill="#FFFBEB" stroke="#FCD34D"/>
  <text x="104" y="795" fill="#92400E" font-family="Poppins, Arial, sans-serif" font-size="11" font-weight="700">TIP</text>
  <text x="104" y="815" fill="#78350F" font-family="Poppins, Arial, sans-serif" font-size="12">Use search plus filters</text>
  <text x="104" y="833" fill="#78350F" font-family="Poppins, Arial, sans-serif" font-size="12">to find routes faster.</text>

  <!-- Main content -->
  <rect x="334" y="138" width="1042" height="770" rx="20" fill="#FFFFFF" stroke="#E2E8F0" filter="url(#softShadow)"/>

  <!-- Search row -->
  <rect x="358" y="166" width="740" height="48" rx="24" fill="#FFFFFF" stroke="#D1D5DB"/>
  <text x="390" y="195" fill="#94A3B8" font-family="Poppins, Arial, sans-serif" font-size="14">Search by shipper, route, or cargo type...</text>
  <circle cx="1070" cy="190" r="14" fill="#F1F5F9"/>

  <rect x="1116" y="166" width="78" height="48" rx="24" fill="url(#activeOrange)"/>
  <text x="1155" y="195" text-anchor="middle" fill="#FFFFFF" font-family="Poppins, Arial, sans-serif" font-size="13" font-weight="600">All</text>

  <rect x="1204" y="166" width="80" height="48" rx="24" fill="#FFFFFF" stroke="#E2E8F0"/>
  <text x="1244" y="195" text-anchor="middle" fill="#475569" font-family="Poppins, Arial, sans-serif" font-size="13" font-weight="500">Open</text>

  <rect x="1294" y="166" width="58" height="48" rx="24" fill="#FFFFFF" stroke="#E2E8F0"/>
  <text x="1323" y="195" text-anchor="middle" fill="#475569" font-family="Poppins, Arial, sans-serif" font-size="13" font-weight="500">...</text>

  <!-- Shipment tracking strip -->
  <rect x="358" y="230" width="994" height="92" rx="16" fill="#EFF6FF" stroke="#BFDBFE"/>
  <text x="382" y="260" fill="#1E3A8A" font-family="Poppins, Arial, sans-serif" font-size="14" font-weight="700">Shipment Tracking</text>
  <text x="382" y="281" fill="#1D4ED8" font-family="Poppins, Arial, sans-serif" font-size="12">3 active shipments in transit</text>

  <rect x="730" y="246" width="286" height="58" rx="12" fill="#FFFFFF" stroke="#DBEAFE"/>
  <circle cx="752" cy="275" r="6" fill="#22C55E"/>
  <text x="768" y="279" fill="#1E293B" font-family="Poppins, Arial, sans-serif" font-size="12" font-weight="500">Davao City</text>
  <text x="868" y="279" fill="#F97316" font-family="Poppins, Arial, sans-serif" font-size="12" font-weight="700">to</text>
  <circle cx="898" cy="275" r="6" fill="#EF4444"/>
  <text x="914" y="279" fill="#1E293B" font-family="Poppins, Arial, sans-serif" font-size="12" font-weight="500">Manila</text>
  <text x="1000" y="279" fill="#1D4ED8" font-family="Poppins, Arial, sans-serif" font-size="12" font-weight="600">Picked Up</text>

  <rect x="1032" y="246" width="140" height="58" rx="12" fill="url(#activeBlue)"/>
  <text x="1102" y="280" text-anchor="middle" fill="#FFFFFF" font-family="Poppins, Arial, sans-serif" font-size="13" font-weight="600">Track Live</text>

  <!-- Section title -->
  <text x="358" y="362" fill="#0F172A" font-family="Poppins, Arial, sans-serif" font-size="24" font-weight="700">Available Cargo</text>
  <text x="358" y="383" fill="#64748B" font-family="Poppins, Arial, sans-serif" font-size="13">124 cargo listings available</text>

  <!-- Card 1 -->
  <rect x="358" y="404" width="486" height="220" rx="16" fill="#FFFFFF" stroke="#E2E8F0" filter="url(#tinyShadow)"/>
  <rect x="358" y="404" width="486" height="5" rx="16" fill="url(#activeOrange)"/>

  <rect x="378" y="424" width="112" height="28" rx="14" fill="#FFF7ED"/>
  <text x="434" y="442" text-anchor="middle" fill="#C2410C" font-family="Poppins, Arial, sans-serif" font-size="11" font-weight="700">NEGOTIATING</text>

  <rect x="706" y="420" width="118" height="34" rx="10" fill="url(#activeOrange)"/>
  <text x="765" y="442" text-anchor="middle" fill="#FFFFFF" font-family="Poppins, Arial, sans-serif" font-size="15" font-weight="700">PHP 85,000</text>

  <text x="378" y="482" fill="#0F172A" font-family="Poppins, Arial, sans-serif" font-size="18" font-weight="700">Juan Cruz</text>
  <text x="490" y="482" fill="#64748B" font-family="Poppins, Arial, sans-serif" font-size="14">21 tons</text>

  <circle cx="386" cy="509" r="6" fill="#16A34A"/>
  <text x="400" y="513" fill="#334155" font-family="Poppins, Arial, sans-serif" font-size="13">Davao City</text>
  <text x="495" y="513" fill="#F97316" font-family="Poppins, Arial, sans-serif" font-size="13" font-weight="700">to</text>
  <circle cx="530" cy="509" r="6" fill="#DC2626"/>
  <text x="544" y="513" fill="#334155" font-family="Poppins, Arial, sans-serif" font-size="13">Manila</text>

  <text x="378" y="540" fill="#94A3B8" font-family="Poppins, Arial, sans-serif" font-size="12">978 km</text>
  <text x="444" y="540" fill="#94A3B8" font-family="Poppins, Arial, sans-serif" font-size="12">20 hrs</text>
  <text x="505" y="540" fill="#16A34A" font-family="Poppins, Arial, sans-serif" font-size="12" font-weight="600">2 bids</text>

  <rect x="378" y="560" width="220" height="44" rx="12" fill="url(#activeBlue)"/>
  <text x="488" y="587" text-anchor="middle" fill="#FFFFFF" font-family="Poppins, Arial, sans-serif" font-size="13" font-weight="600">View Cargo Details</text>

  <rect x="610" y="560" width="214" height="44" rx="12" fill="#FFFFFF" stroke="#CBD5E1"/>
  <text x="717" y="587" text-anchor="middle" fill="#334155" font-family="Poppins, Arial, sans-serif" font-size="13" font-weight="500">Contact Shipper</text>

  <!-- Card 2 -->
  <rect x="866" y="404" width="486" height="220" rx="16" fill="#FFFFFF" stroke="#E2E8F0" filter="url(#tinyShadow)"/>
  <rect x="866" y="404" width="486" height="5" rx="16" fill="url(#activeEmerald)"/>

  <rect x="886" y="424" width="72" height="28" rx="14" fill="#ECFDF5"/>
  <text x="922" y="442" text-anchor="middle" fill="#047857" font-family="Poppins, Arial, sans-serif" font-size="11" font-weight="700">OPEN</text>

  <rect x="1214" y="420" width="118" height="34" rx="10" fill="url(#activeOrange)"/>
  <text x="1273" y="442" text-anchor="middle" fill="#FFFFFF" font-family="Poppins, Arial, sans-serif" font-size="15" font-weight="700">PHP 120,000</text>

  <text x="886" y="482" fill="#0F172A" font-family="Poppins, Arial, sans-serif" font-size="18" font-weight="700">Maria Santos</text>
  <text x="1012" y="482" fill="#64748B" font-family="Poppins, Arial, sans-serif" font-size="14">15 tons</text>

  <circle cx="894" cy="509" r="6" fill="#16A34A"/>
  <text x="908" y="513" fill="#334155" font-family="Poppins, Arial, sans-serif" font-size="13">Cebu City</text>
  <text x="994" y="513" fill="#F97316" font-family="Poppins, Arial, sans-serif" font-size="13" font-weight="700">to</text>
  <circle cx="1029" cy="509" r="6" fill="#DC2626"/>
  <text x="1043" y="513" fill="#334155" font-family="Poppins, Arial, sans-serif" font-size="13">Davao</text>

  <text x="886" y="540" fill="#94A3B8" font-family="Poppins, Arial, sans-serif" font-size="12">587 km</text>
  <text x="952" y="540" fill="#94A3B8" font-family="Poppins, Arial, sans-serif" font-size="12">12 hrs</text>
  <text x="1013" y="540" fill="#64748B" font-family="Poppins, Arial, sans-serif" font-size="12" font-weight="600">0 bids</text>

  <rect x="886" y="560" width="220" height="44" rx="12" fill="url(#activeBlue)"/>
  <text x="996" y="587" text-anchor="middle" fill="#FFFFFF" font-family="Poppins, Arial, sans-serif" font-size="13" font-weight="600">View Cargo Details</text>

  <rect x="1118" y="560" width="214" height="44" rx="12" fill="#FFFFFF" stroke="#CBD5E1"/>
  <text x="1225" y="587" text-anchor="middle" fill="#334155" font-family="Poppins, Arial, sans-serif" font-size="13" font-weight="500">Place Bid</text>

  <!-- Card 3 -->
  <rect x="358" y="644" width="994" height="220" rx="16" fill="#FFFFFF" stroke="#E2E8F0" filter="url(#tinyShadow)"/>
  <rect x="358" y="644" width="994" height="5" rx="16" fill="url(#activeBlue)"/>

  <rect x="378" y="664" width="84" height="28" rx="14" fill="#EFF6FF"/>
  <text x="420" y="682" text-anchor="middle" fill="#1D4ED8" font-family="Poppins, Arial, sans-serif" font-size="11" font-weight="700">WAITING</text>

  <rect x="1208" y="660" width="124" height="36" rx="10" fill="url(#activeOrange)"/>
  <text x="1270" y="683" text-anchor="middle" fill="#FFFFFF" font-family="Poppins, Arial, sans-serif" font-size="15" font-weight="700">PHP 95,000</text>

  <text x="378" y="724" fill="#0F172A" font-family="Poppins, Arial, sans-serif" font-size="18" font-weight="700">Pedro Reyes</text>
  <text x="491" y="724" fill="#64748B" font-family="Poppins, Arial, sans-serif" font-size="14">18 tons</text>

  <circle cx="386" cy="752" r="6" fill="#16A34A"/>
  <text x="400" y="756" fill="#334155" font-family="Poppins, Arial, sans-serif" font-size="13">Manila</text>
  <text x="465" y="756" fill="#F97316" font-family="Poppins, Arial, sans-serif" font-size="13" font-weight="700">to</text>
  <circle cx="500" cy="752" r="6" fill="#DC2626"/>
  <text x="514" y="756" fill="#334155" font-family="Poppins, Arial, sans-serif" font-size="13">Iloilo</text>

  <text x="378" y="782" fill="#94A3B8" font-family="Poppins, Arial, sans-serif" font-size="12">580 km</text>
  <text x="444" y="782" fill="#94A3B8" font-family="Poppins, Arial, sans-serif" font-size="12">15 hrs</text>
  <text x="505" y="782" fill="#F97316" font-family="Poppins, Arial, sans-serif" font-size="12" font-weight="600">1 bid</text>

  <rect x="378" y="802" width="260" height="44" rx="12" fill="url(#activeBlue)"/>
  <text x="508" y="829" text-anchor="middle" fill="#FFFFFF" font-family="Poppins, Arial, sans-serif" font-size="13" font-weight="600">View Cargo Details</text>

  <rect x="650" y="802" width="256" height="44" rx="12" fill="#FFFFFF" stroke="#CBD5E1"/>
  <text x="778" y="829" text-anchor="middle" fill="#334155" font-family="Poppins, Arial, sans-serif" font-size="13" font-weight="500">Contact Shipper</text>

  <rect x="918" y="802" width="256" height="44" rx="12" fill="#FFFFFF" stroke="#CBD5E1"/>
  <text x="1046" y="829" text-anchor="middle" fill="#334155" font-family="Poppins, Arial, sans-serif" font-size="13" font-weight="500">View Route Map</text>

  <rect x="1186" y="802" width="166" height="44" rx="12" fill="url(#activeOrange)"/>
  <text x="1269" y="829" text-anchor="middle" fill="#FFFFFF" font-family="Poppins, Arial, sans-serif" font-size="13" font-weight="600">Place Bid</text>
</svg>
