<?xml version="1.0" encoding="UTF-8"?>
<svg width="375" height="812" viewBox="0 0 375 812" fill="none" xmlns="http://www.w3.org/2000/svg">
  <!-- Phone Frame -->
  <rect width="375" height="812" rx="40" fill="#F5F5F5"/>

  <!-- Status Bar -->
  <rect y="0" width="375" height="44" fill="#FFFFFF"/>
  <text x="187" y="28" font-family="Arial" font-size="14" font-weight="600" fill="#000" text-anchor="middle">9:41</text>
  <circle cx="335" cy="22" r="12" fill="#34C759"/>
  <rect x="305" y="18" width="20" height="8" rx="2" fill="#000"/>

  <!-- Header -->
  <rect y="44" width="375" height="56" fill="#FFFFFF"/>
  <circle cx="36" cy="72" r="18" fill="#FF6B00"/>
  <text x="60" y="68" font-family="Arial" font-size="16" font-weight="700" fill="#FF6B00">Get</text>
  <text x="85" y="68" font-family="Arial" font-size="16" font-weight="700" fill="#1a1a1a">Go</text>
  <text x="60" y="82" font-family="Arial" font-size="9" fill="#666">YOUR CARGO MARKETPLACE</text>

  <!-- Dark mode toggle -->
  <circle cx="310" cy="72" r="16" fill="#F0F0F0"/>
  <text x="310" y="76" font-family="Arial" font-size="12" text-anchor="middle" fill="#666">🌙</text>

  <!-- User Avatar -->
  <circle cx="350" cy="72" r="16" fill="#4CAF50"/>
  <text x="350" y="77" font-family="Arial" font-size="12" font-weight="600" text-anchor="middle" fill="#FFF">J</text>

  <!-- Market Switcher (Integrated) -->
  <rect x="16" y="108" width="167" height="40" rx="20" fill="#FF6B00"/>
  <text x="100" y="133" font-family="Arial" font-size="14" font-weight="600" text-anchor="middle" fill="#FFFFFF">Cargo</text>

  <rect x="191" y="108" width="168" height="40" rx="20" fill="#FFFFFF" stroke="#E0E0E0" stroke-width="1"/>
  <text x="275" y="133" font-family="Arial" font-size="14" font-weight="600" text-anchor="middle" fill="#666">Trucks</text>

  <!-- Search Bar -->
  <rect x="16" y="160" width="343" height="44" rx="22" fill="#FFFFFF" stroke="#E0E0E0" stroke-width="1"/>
  <text x="50" y="187" font-family="Arial" font-size="14" fill="#999">Search by shipper, route...</text>
  <circle cx="335" cy="182" r="12" fill="#F5F5F5"/>
  <text x="335" y="186" font-family="Arial" font-size="10" text-anchor="middle" fill="#666">🔍</text>

  <!-- Filter Pills (Horizontal Scroll) -->
  <rect x="16" y="216" width="50" height="32" rx="16" fill="#FF6B00"/>
  <text x="41" y="237" font-family="Arial" font-size="12" font-weight="500" text-anchor="middle" fill="#FFF">All</text>

  <rect x="74" y="216" width="60" height="32" rx="16" fill="#FFF" stroke="#E0E0E0"/>
  <text x="104" y="237" font-family="Arial" font-size="12" font-weight="500" text-anchor="middle" fill="#666">Open</text>

  <rect x="142" y="216" width="90" height="32" rx="16" fill="#FFF" stroke="#E0E0E0"/>
  <text x="187" y="237" font-family="Arial" font-size="12" font-weight="500" text-anchor="middle" fill="#666">Negotiating</text>

  <rect x="240" y="216" width="70" height="32" rx="16" fill="#FFF" stroke="#E0E0E0"/>
  <text x="275" y="237" font-family="Arial" font-size="12" font-weight="500" text-anchor="middle" fill="#666">Waiting</text>

  <!-- Listings Header -->
  <text x="16" y="280" font-family="Arial" font-size="18" font-weight="700" fill="#1a1a1a">Available Cargo</text>
  <text x="16" y="298" font-family="Arial" font-size="12" fill="#666">5 cargo listings available</text>

  <!-- COMPACT CARD 1 -->
  <rect x="16" y="316" width="343" height="100" rx="12" fill="#FFFFFF" filter="url(#shadow)"/>
  <!-- Orange accent bar -->
  <rect x="16" y="316" width="343" height="4" rx="12 12 0 0" fill="url(#orangeGradient)"/>

  <!-- Status Badge -->
  <rect x="28" y="332" width="85" height="24" rx="12" fill="#FFF3E0"/>
  <text x="70" y="349" font-family="Arial" font-size="10" font-weight="600" text-anchor="middle" fill="#FF6B00">NEGOTIATING</text>

  <!-- Price -->
  <rect x="270" y="328" width="77" height="32" rx="8" fill="#FF6B00"/>
  <text x="308" y="350" font-family="Arial" font-size="14" font-weight="700" text-anchor="middle" fill="#FFF">₱85,000</text>

  <!-- Name & Weight -->
  <text x="28" y="378" font-family="Arial" font-size="14" font-weight="600" fill="#1a1a1a">Juan Cruz</text>
  <text x="100" y="378" font-family="Arial" font-size="14" fill="#666">• 21 tons</text>

  <!-- Route (Single Line) -->
  <circle cx="34" cy="396" r="6" fill="#4CAF50"/>
  <text x="46" y="400" font-family="Arial" font-size="12" fill="#333">Davao City</text>
  <text x="115" y="400" font-family="Arial" font-size="12" fill="#FF6B00">→</text>
  <circle cx="134" cy="396" r="6" fill="#F44336"/>
  <text x="146" y="400" font-family="Arial" font-size="12" fill="#333">Manila</text>

  <!-- Metrics -->
  <text x="220" y="400" font-family="Arial" font-size="11" fill="#888">978km • 20hrs •</text>
  <text x="310" y="400" font-family="Arial" font-size="11" font-weight="600" fill="#FF6B00">2 bids</text>

  <!-- COMPACT CARD 2 -->
  <rect x="16" y="428" width="343" height="100" rx="12" fill="#FFFFFF" filter="url(#shadow)"/>
  <rect x="16" y="428" width="343" height="4" rx="12 12 0 0" fill="url(#greenGradient)"/>

  <!-- Status Badge -->
  <rect x="28" y="444" width="55" height="24" rx="12" fill="#E8F5E9"/>
  <text x="55" y="461" font-family="Arial" font-size="10" font-weight="600" text-anchor="middle" fill="#4CAF50">OPEN</text>

  <!-- Price -->
  <rect x="262" y="440" width="85" height="32" rx="8" fill="#FF6B00"/>
  <text x="304" y="462" font-family="Arial" font-size="14" font-weight="700" text-anchor="middle" fill="#FFF">₱120,000</text>

  <!-- Name & Weight -->
  <text x="28" y="490" font-family="Arial" font-size="14" font-weight="600" fill="#1a1a1a">Maria Santos</text>
  <text x="115" y="490" font-family="Arial" font-size="14" fill="#666">• 15 tons</text>

  <!-- Route -->
  <circle cx="34" cy="508" r="6" fill="#4CAF50"/>
  <text x="46" y="512" font-family="Arial" font-size="12" fill="#333">Cebu City</text>
  <text x="110" y="512" font-family="Arial" font-size="12" fill="#FF6B00">→</text>
  <circle cx="129" cy="508" r="6" fill="#F44336"/>
  <text x="141" y="512" font-family="Arial" font-size="12" fill="#333">Davao</text>

  <!-- Metrics -->
  <text x="200" y="512" font-family="Arial" font-size="11" fill="#888">587km • 12hrs •</text>
  <text x="290" y="512" font-family="Arial" font-size="11" font-weight="600" fill="#888">0 bids</text>

  <!-- COMPACT CARD 3 -->
  <rect x="16" y="540" width="343" height="100" rx="12" fill="#FFFFFF" filter="url(#shadow)"/>
  <rect x="16" y="540" width="343" height="4" rx="12 12 0 0" fill="url(#blueGradient)"/>

  <!-- Status Badge -->
  <rect x="28" y="556" width="65" height="24" rx="12" fill="#E3F2FD"/>
  <text x="60" y="573" font-family="Arial" font-size="10" font-weight="600" text-anchor="middle" fill="#2196F3">WAITING</text>

  <!-- Price -->
  <rect x="270" y="552" width="77" height="32" rx="8" fill="#FF6B00"/>
  <text x="308" y="574" font-family="Arial" font-size="14" font-weight="700" text-anchor="middle" fill="#FFF">₱95,000</text>

  <!-- Name & Weight -->
  <text x="28" y="602" font-family="Arial" font-size="14" font-weight="600" fill="#1a1a1a">Pedro Reyes</text>
  <text x="110" y="602" font-family="Arial" font-size="14" fill="#666">• 18 tons</text>

  <!-- Route -->
  <circle cx="34" cy="620" r="6" fill="#4CAF50"/>
  <text x="46" y="624" font-family="Arial" font-size="12" fill="#333">Manila</text>
  <text x="90" y="624" font-family="Arial" font-size="12" fill="#FF6B00">→</text>
  <circle cx="109" cy="620" r="6" fill="#F44336"/>
  <text x="121" y="624" font-family="Arial" font-size="12" fill="#333">Iloilo</text>

  <!-- Metrics -->
  <text x="180" y="624" font-family="Arial" font-size="11" fill="#888">580km • 15hrs •</text>
  <text x="270" y="624" font-family="Arial" font-size="11" font-weight="600" fill="#FF6B00">1 bid</text>

  <!-- COMPACT CARD 4 (Partial - showing more fits) -->
  <rect x="16" y="652" width="343" height="60" rx="12" fill="#FFFFFF" filter="url(#shadow)"/>
  <rect x="16" y="652" width="343" height="4" rx="12 12 0 0" fill="url(#orangeGradient)"/>

  <rect x="28" y="668" width="85" height="24" rx="12" fill="#FFF3E0"/>
  <text x="70" y="685" font-family="Arial" font-size="10" font-weight="600" text-anchor="middle" fill="#FF6B00">NEGOTIATING</text>

  <rect x="270" y="664" width="77" height="32" rx="8" fill="#FF6B00"/>
  <text x="308" y="686" font-family="Arial" font-size="14" font-weight="700" text-anchor="middle" fill="#FFF">₱75,000</text>

  <!-- Bottom Navigation -->
  <rect y="732" width="375" height="80" fill="#FFFFFF"/>
  <line x1="0" y1="732" x2="375" y2="732" stroke="#E0E0E0" stroke-width="1"/>

  <!-- Nav Items -->
  <!-- Home (Active) -->
  <text x="37" y="762" font-family="Arial" font-size="20" text-anchor="middle">🏠</text>
  <text x="37" y="780" font-family="Arial" font-size="10" font-weight="600" text-anchor="middle" fill="#FF6B00">Home</text>
  <circle cx="37" cy="788" r="3" fill="#FF6B00"/>

  <!-- Bids -->
  <text x="112" y="762" font-family="Arial" font-size="20" text-anchor="middle">📦</text>
  <text x="112" y="780" font-family="Arial" font-size="10" text-anchor="middle" fill="#888">Bids</text>

  <!-- Post Button (Floating) -->
  <circle cx="187" cy="745" r="28" fill="#FF6B00"/>
  <text x="187" y="752" font-family="Arial" font-size="24" font-weight="300" text-anchor="middle" fill="#FFF">+</text>
  <text x="187" y="780" font-family="Arial" font-size="10" text-anchor="middle" fill="#888">Post</text>

  <!-- Chat -->
  <text x="262" y="762" font-family="Arial" font-size="20" text-anchor="middle">💬</text>
  <text x="262" y="780" font-family="Arial" font-size="10" text-anchor="middle" fill="#888">Chat</text>
  <!-- Notification badge -->
  <circle cx="275" cy="752" r="8" fill="#F44336"/>
  <text x="275" y="756" font-family="Arial" font-size="8" font-weight="600" text-anchor="middle" fill="#FFF">3</text>

  <!-- Track -->
  <text x="337" y="762" font-family="Arial" font-size="20" text-anchor="middle">📍</text>
  <text x="337" y="780" font-family="Arial" font-size="10" text-anchor="middle" fill="#888">Track</text>

  <!-- Home Indicator -->
  <rect x="120" y="800" width="135" height="5" rx="2.5" fill="#000"/>

  <!-- Gradients -->
  <defs>
    <linearGradient id="orangeGradient" x1="0%" y1="0%" x2="100%" y2="0%">
      <stop offset="0%" style="stop-color:#FF6B00"/>
      <stop offset="100%" style="stop-color:#FF9500"/>
    </linearGradient>
    <linearGradient id="greenGradient" x1="0%" y1="0%" x2="100%" y2="0%">
      <stop offset="0%" style="stop-color:#4CAF50"/>
      <stop offset="100%" style="stop-color:#8BC34A"/>
    </linearGradient>
    <linearGradient id="blueGradient" x1="0%" y1="0%" x2="100%" y2="0%">
      <stop offset="0%" style="stop-color:#2196F3"/>
      <stop offset="100%" style="stop-color:#03A9F4"/>
    </linearGradient>
    <filter id="shadow" x="-10%" y="-10%" width="120%" height="130%">
      <feDropShadow dx="0" dy="2" stdDeviation="4" flood-opacity="0.1"/>
    </filter>
  </defs>
</svg>