<?xml version="1.0" encoding="UTF-8"?>
<svg width="375" height="812" viewBox="0 0 375 812" fill="none" xmlns="http://www.w3.org/2000/svg">
  <!-- Phone Frame -->
  <rect width="375" height="812" rx="40" fill="#F5F5F5"/>

  <!-- Status Bar -->
  <rect y="0" width="375" height="44" fill="#FFFFFF"/>
  <text x="187" y="28" font-family="Arial" font-size="14" font-weight="600" fill="#000" text-anchor="middle">9:41</text>
  <circle cx="335" cy="22" r="12" fill="#34C759"/>
  <rect x="305" y="18" width="20" height="8" rx="2" fill="#000"/>

  <!-- Header -->
  <rect y="44" width="375" height="56" fill="#FFFFFF"/>
  <circle cx="36" cy="72" r="18" fill="#FF6B00"/>
  <text x="28" y="77" font-family="Arial" font-size="14" font-weight="700" fill="#FFF">G</text>
  <text x="60" y="68" font-family="Arial" font-size="16" font-weight="700" fill="#FF6B00">Get</text>
  <text x="85" y="68" font-family="Arial" font-size="16" font-weight="700" fill="#1a1a1a">Go</text>
  <text x="60" y="82" font-family="Arial" font-size="8" fill="#666">SHIPPER ACCOUNT</text>

  <!-- Wallet Balance -->
  <rect x="240" y="58" width="70" height="28" rx="14" fill="#F0FDF4" stroke="#86EFAC"/>
  <text x="255" y="76" font-family="Arial" font-size="10" fill="#166534">💰 ₱5,200</text>

  <!-- Notifications -->
  <circle cx="325" cy="72" r="16" fill="#FFF5F5"/>
  <text x="325" y="76" font-family="Arial" font-size="14" text-anchor="middle">🔔</text>
  <circle cx="335" cy="62" r="8" fill="#EF4444"/>
  <text x="335" y="66" font-family="Arial" font-size="8" font-weight="600" text-anchor="middle" fill="#FFF">3</text>

  <!-- User Avatar -->
  <circle cx="355" cy="72" r="16" fill="#3B82F6"/>
  <text x="355" y="77" font-family="Arial" font-size="12" font-weight="600" text-anchor="middle" fill="#FFF">S</text>

  <!-- Market Switcher -->
  <rect x="16" y="108" width="167" height="40" rx="20" fill="#FF6B00"/>
  <text x="100" y="133" font-family="Arial" font-size="14" font-weight="600" text-anchor="middle" fill="#FFFFFF">Cargo</text>

  <rect x="191" y="108" width="168" height="40" rx="20" fill="#FFFFFF" stroke="#E0E0E0" stroke-width="1"/>
  <text x="275" y="133" font-family="Arial" font-size="14" font-weight="600" text-anchor="middle" fill="#666">Trucks</text>

  <!-- Search Bar -->
  <rect x="16" y="160" width="343" height="44" rx="22" fill="#FFFFFF" stroke="#E0E0E0" stroke-width="1"/>
  <text x="50" y="187" font-family="Arial" font-size="14" fill="#999">Search trucks to book...</text>
  <circle cx="335" cy="182" r="12" fill="#F5F5F5"/>
  <text x="335" y="186" font-family="Arial" font-size="10" text-anchor="middle" fill="#666">🔍</text>

  <!-- Filter Pills -->
  <rect x="16" y="216" width="50" height="32" rx="16" fill="#FF6B00"/>
  <text x="41" y="237" font-family="Arial" font-size="12" font-weight="500" text-anchor="middle" fill="#FFF">All</text>

  <rect x="74" y="216" width="70" height="32" rx="16" fill="#FFF" stroke="#E0E0E0"/>
  <text x="109" y="237" font-family="Arial" font-size="12" font-weight="500" text-anchor="middle" fill="#666">Available</text>

  <rect x="152" y="216" width="70" height="32" rx="16" fill="#FFF" stroke="#E0E0E0"/>
  <text x="187" y="237" font-family="Arial" font-size="12" font-weight="500" text-anchor="middle" fill="#666">In Transit</text>

  <!-- Section Title -->
  <text x="16" y="275" font-family="Arial" font-size="18" font-weight="700" fill="#1a1a1a">Available Trucks</text>
  <text x="16" y="293" font-family="Arial" font-size="12" fill="#666">Find trucks to transport your cargo</text>

  <!-- TRUCK CARD 1 -->
  <rect x="16" y="310" width="343" height="100" rx="12" fill="#FFFFFF" filter="url(#shadow)"/>
  <rect x="16" y="310" width="343" height="4" rx="12 12 0 0" fill="url(#blueGradient)"/>

  <rect x="28" y="326" width="70" height="22" rx="11" fill="#E8F5E9"/>
  <text x="63" y="341" font-family="Arial" font-size="9" font-weight="600" text-anchor="middle" fill="#4CAF50">AVAILABLE</text>

  <rect x="105" y="326" width="50" height="22" rx="11" fill="#E3F2FD"/>
  <text x="130" y="341" font-family="Arial" font-size="9" font-weight="600" text-anchor="middle" fill="#2196F3">6W</text>

  <text x="280" y="342" font-family="Arial" font-size="14" font-weight="700" fill="#1a1a1a">₱8/km</text>

  <text x="28" y="368" font-family="Arial" font-size="13" font-weight="600" fill="#1a1a1a">Pedro Santos</text>
  <text x="115" y="368" font-family="Arial" font-size="13" fill="#666">• 10 ton capacity</text>

  <circle cx="34" cy="390" r="5" fill="#4CAF50"/>
  <text x="44" y="394" font-family="Arial" font-size="11" fill="#333">Cebu</text>
  <text x="75" y="394" font-family="Arial" font-size="11" fill="#FF6B00">→</text>
  <circle cx="90" cy="390" r="5" fill="#F44336"/>
  <text x="100" y="394" font-family="Arial" font-size="11" fill="#333">Manila</text>
  <text x="200" y="394" font-family="Arial" font-size="10" fill="#888">⭐ 4.8 • 156 trips</text>

  <!-- TRUCK CARD 2 -->
  <rect x="16" y="422" width="343" height="100" rx="12" fill="#FFFFFF" filter="url(#shadow)"/>
  <rect x="16" y="422" width="343" height="4" rx="12 12 0 0" fill="url(#blueGradient)"/>

  <rect x="28" y="438" width="70" height="22" rx="11" fill="#E8F5E9"/>
  <text x="63" y="453" font-family="Arial" font-size="9" font-weight="600" text-anchor="middle" fill="#4CAF50">AVAILABLE</text>

  <rect x="105" y="438" width="50" height="22" rx="11" fill="#E3F2FD"/>
  <text x="130" y="453" font-family="Arial" font-size="9" font-weight="600" text-anchor="middle" fill="#2196F3">10W</text>

  <text x="275" y="454" font-family="Arial" font-size="14" font-weight="700" fill="#1a1a1a">₱12/km</text>

  <text x="28" y="480" font-family="Arial" font-size="13" font-weight="600" fill="#1a1a1a">Maria Reyes</text>
  <text x="110" y="480" font-family="Arial" font-size="13" fill="#666">• 20 ton capacity</text>

  <circle cx="34" cy="502" r="5" fill="#4CAF50"/>
  <text x="44" y="506" font-family="Arial" font-size="11" fill="#333">Davao</text>
  <text x="82" y="506" font-family="Arial" font-size="11" fill="#FF6B00">→</text>
  <circle cx="97" cy="502" r="5" fill="#F44336"/>
  <text x="107" y="506" font-family="Arial" font-size="11" fill="#333">Cebu</text>
  <text x="200" y="506" font-family="Arial" font-size="10" fill="#888">⭐ 4.9 • 203 trips</text>

  <!-- TRUCK CARD 3 -->
  <rect x="16" y="534" width="343" height="100" rx="12" fill="#FFFFFF" filter="url(#shadow)"/>
  <rect x="16" y="534" width="343" height="4" rx="12 12 0 0" fill="url(#orangeGradient)"/>

  <rect x="28" y="550" width="70" height="22" rx="11" fill="#FFF3E0"/>
  <text x="63" y="565" font-family="Arial" font-size="9" font-weight="600" text-anchor="middle" fill="#FF6B00">IN TRANSIT</text>

  <rect x="105" y="550" width="50" height="22" rx="11" fill="#E3F2FD"/>
  <text x="130" y="565" font-family="Arial" font-size="9" font-weight="600" text-anchor="middle" fill="#2196F3">6W</text>

  <text x="280" y="566" font-family="Arial" font-size="14" font-weight="700" fill="#1a1a1a">₱9/km</text>

  <text x="28" y="592" font-family="Arial" font-size="13" font-weight="600" fill="#1a1a1a">Juan Cruz</text>
  <text x="100" y="592" font-family="Arial" font-size="13" fill="#666">• 8 ton capacity</text>

  <circle cx="34" cy="614" r="5" fill="#4CAF50"/>
  <text x="44" y="618" font-family="Arial" font-size="11" fill="#333">Manila</text>
  <text x="85" y="618" font-family="Arial" font-size="11" fill="#FF6B00">→</text>
  <circle cx="100" cy="614" r="5" fill="#F44336"/>
  <text x="110" y="618" font-family="Arial" font-size="11" fill="#333">Iloilo</text>
  <text x="200" y="618" font-family="Arial" font-size="10" fill="#888">⭐ 4.7 • 89 trips</text>

  <!-- TRUCK CARD 4 (Partial) -->
  <rect x="16" y="646" width="343" height="70" rx="12" fill="#FFFFFF" filter="url(#shadow)"/>
  <rect x="16" y="646" width="343" height="4" rx="12 12 0 0" fill="url(#blueGradient)"/>

  <rect x="28" y="662" width="70" height="22" rx="11" fill="#E8F5E9"/>
  <text x="63" y="677" font-family="Arial" font-size="9" font-weight="600" text-anchor="middle" fill="#4CAF50">AVAILABLE</text>
  <text x="170" y="695" font-family="Arial" font-size="11" fill="#999">+ more trucks below...</text>

  <!-- Bottom Navigation - SHIPPER -->
  <rect y="732" width="375" height="80" fill="#FFFFFF"/>
  <line x1="0" y1="732" x2="375" y2="732" stroke="#E0E0E0" stroke-width="1"/>

  <!-- Home (Active) -->
  <g>
    <text x="37" y="762" font-family="Arial" font-size="20" text-anchor="middle">🏠</text>
    <text x="37" y="780" font-family="Arial" font-size="10" font-weight="600" text-anchor="middle" fill="#FF6B00">Home</text>
    <circle cx="37" cy="788" r="3" fill="#FF6B00"/>
  </g>

  <!-- My Bookings -->
  <g>
    <text x="112" y="762" font-family="Arial" font-size="20" text-anchor="middle">📋</text>
    <text x="112" y="780" font-family="Arial" font-size="10" text-anchor="middle" fill="#888">Bookings</text>
  </g>

  <!-- Post Cargo Button (FAB) -->
  <g>
    <circle cx="187" cy="745" r="28" fill="url(#orangeGradient)"/>
    <text x="187" y="752" font-family="Arial" font-size="24" font-weight="300" text-anchor="middle" fill="#FFF">+</text>
    <text x="187" y="785" font-family="Arial" font-size="10" text-anchor="middle" fill="#888">Post</text>
  </g>

  <!-- Chat -->
  <g>
    <text x="262" y="762" font-family="Arial" font-size="20" text-anchor="middle">💬</text>
    <text x="262" y="780" font-family="Arial" font-size="10" text-anchor="middle" fill="#888">Chat</text>
    <circle cx="275" cy="752" r="8" fill="#EF4444"/>
    <text x="275" y="756" font-family="Arial" font-size="8" font-weight="600" text-anchor="middle" fill="#FFF">2</text>
  </g>

  <!-- Track -->
  <g>
    <text x="337" y="762" font-family="Arial" font-size="20" text-anchor="middle">📍</text>
    <text x="337" y="780" font-family="Arial" font-size="10" text-anchor="middle" fill="#888">Track</text>
  </g>

  <!-- Home Indicator -->
  <rect x="120" y="800" width="135" height="5" rx="2.5" fill="#000"/>

  <!-- Label: SHIPPER VIEW -->
  <rect x="120" y="10" width="135" height="24" rx="12" fill="#3B82F6"/>
  <text x="187" y="26" font-family="Arial" font-size="11" font-weight="600" text-anchor="middle" fill="#FFF">SHIPPER VIEW</text>

  <!-- Defs -->
  <defs>
    <linearGradient id="orangeGradient" x1="0%" y1="0%" x2="100%" y2="0%">
      <stop offset="0%" style="stop-color:#FF6B00"/>
      <stop offset="100%" style="stop-color:#FF9500"/>
    </linearGradient>
    <linearGradient id="blueGradient" x1="0%" y1="0%" x2="100%" y2="0%">
      <stop offset="0%" style="stop-color:#3B82F6"/>
      <stop offset="100%" style="stop-color:#60A5FA"/>
    </linearGradient>
    <filter id="shadow" x="-10%" y="-10%" width="120%" height="130%">
      <feDropShadow dx="0" dy="2" stdDeviation="4" flood-opacity="0.1"/>
    </filter>
  </defs>
</svg>