<?xml version="1.0" encoding="UTF-8"?>
<svg width="375" height="812" viewBox="0 0 375 812" fill="none" xmlns="http://www.w3.org/2000/svg">
  <!-- Phone Frame -->
  <rect width="375" height="812" rx="40" fill="#F5F5F5"/>

  <!-- Status Bar -->
  <rect y="0" width="375" height="44" fill="#FFFFFF"/>
  <text x="187" y="28" font-family="Arial" font-size="14" font-weight="600" fill="#000" text-anchor="middle">9:41</text>
  <circle cx="335" cy="22" r="12" fill="#34C759"/>
  <rect x="305" y="18" width="20" height="8" rx="2" fill="#000"/>

  <!-- Header -->
  <rect y="44" width="375" height="56" fill="#FFFFFF"/>
  <circle cx="36" cy="72" r="18" fill="#FF6B00"/>
  <text x="28" y="77" font-family="Arial" font-size="14" font-weight="700" fill="#FFF">G</text>
  <text x="60" y="68" font-family="Arial" font-size="16" font-weight="700" fill="#FF6B00">Get</text>
  <text x="85" y="68" font-family="Arial" font-size="16" font-weight="700" fill="#1a1a1a">Go</text>
  <text x="60" y="82" font-family="Arial" font-size="8" fill="#666">TRUCKER ACCOUNT</text>

  <!-- Wallet Balance -->
  <rect x="240" y="58" width="70" height="28" rx="14" fill="#F0FDF4" stroke="#86EFAC"/>
  <text x="252" y="76" font-family="Arial" font-size="10" fill="#166534">💰 ₱12,450</text>

  <!-- Notifications -->
  <circle cx="325" cy="72" r="16" fill="#FFF5F5"/>
  <text x="325" y="76" font-family="Arial" font-size="14" text-anchor="middle">🔔</text>
  <circle cx="335" cy="62" r="8" fill="#EF4444"/>
  <text x="335" y="66" font-family="Arial" font-size="8" font-weight="600" text-anchor="middle" fill="#FFF">5</text>

  <!-- User Avatar -->
  <circle cx="355" cy="72" r="16" fill="#10B981"/>
  <text x="355" y="77" font-family="Arial" font-size="12" font-weight="600" text-anchor="middle" fill="#FFF">T</text>

  <!-- Market Switcher - Cargo Selected (Truckers browse cargo) -->
  <rect x="16" y="108" width="167" height="40" rx="20" fill="#FF6B00"/>
  <text x="100" y="133" font-family="Arial" font-size="14" font-weight="600" text-anchor="middle" fill="#FFFFFF">Cargo</text>

  <rect x="191" y="108" width="168" height="40" rx="20" fill="#FFFFFF" stroke="#E0E0E0" stroke-width="1"/>
  <text x="275" y="133" font-family="Arial" font-size="14" font-weight="600" text-anchor="middle" fill="#666">Trucks</text>

  <!-- Search Bar -->
  <rect x="16" y="160" width="343" height="44" rx="22" fill="#FFFFFF" stroke="#E0E0E0" stroke-width="1"/>
  <text x="50" y="187" font-family="Arial" font-size="14" fill="#999">Search cargo to haul...</text>
  <circle cx="335" cy="182" r="12" fill="#F5F5F5"/>
  <text x="335" y="186" font-family="Arial" font-size="10" text-anchor="middle" fill="#666">🔍</text>

  <!-- Filter Pills -->
  <rect x="16" y="216" width="50" height="32" rx="16" fill="#FF6B00"/>
  <text x="41" y="237" font-family="Arial" font-size="12" font-weight="500" text-anchor="middle" fill="#FFF">All</text>

  <rect x="74" y="216" width="55" height="32" rx="16" fill="#FFF" stroke="#E0E0E0"/>
  <text x="101" y="237" font-family="Arial" font-size="12" font-weight="500" text-anchor="middle" fill="#666">Open</text>

  <rect x="137" y="216" width="85" height="32" rx="16" fill="#FFF" stroke="#E0E0E0"/>
  <text x="179" y="237" font-family="Arial" font-size="12" font-weight="500" text-anchor="middle" fill="#666">Negotiating</text>

  <rect x="230" y="216" width="65" height="32" rx="16" fill="#FFF" stroke="#E0E0E0"/>
  <text x="262" y="237" font-family="Arial" font-size="12" font-weight="500" text-anchor="middle" fill="#666">Waiting</text>

  <!-- Section Title -->
  <text x="16" y="275" font-family="Arial" font-size="18" font-weight="700" fill="#1a1a1a">Available Cargo</text>
  <text x="16" y="293" font-family="Arial" font-size="12" fill="#666">Find cargo to haul and earn</text>

  <!-- CARGO CARD 1 -->
  <rect x="16" y="310" width="343" height="100" rx="12" fill="#FFFFFF" filter="url(#shadow)"/>
  <rect x="16" y="310" width="343" height="4" rx="12 12 0 0" fill="url(#orangeGradient)"/>

  <rect x="28" y="326" width="85" height="22" rx="11" fill="#FFF3E0"/>
  <text x="70" y="341" font-family="Arial" font-size="9" font-weight="600" text-anchor="middle" fill="#FF6B00">NEGOTIATING</text>

  <rect x="280" y="322" width="70" height="28" rx="8" fill="#FF6B00"/>
  <text x="315" y="341" font-family="Arial" font-size="12" font-weight="700" text-anchor="middle" fill="#FFF">₱85,000</text>

  <text x="28" y="368" font-family="Arial" font-size="13" font-weight="600" fill="#1a1a1a">ABC Trading Co.</text>
  <text x="130" y="368" font-family="Arial" font-size="13" fill="#666">• 21 tons</text>

  <circle cx="34" cy="390" r="5" fill="#4CAF50"/>
  <text x="44" y="394" font-family="Arial" font-size="11" fill="#333">Davao City</text>
  <text x="105" y="394" font-family="Arial" font-size="11" fill="#FF6B00">→</text>
  <circle cx="120" cy="390" r="5" fill="#F44336"/>
  <text x="130" y="394" font-family="Arial" font-size="11" fill="#333">Manila</text>
  <text x="220" y="394" font-family="Arial" font-size="10" fill="#888">978km • 20hrs •</text>
  <text x="310" y="394" font-family="Arial" font-size="10" font-weight="600" fill="#FF6B00">2 bids</text>

  <!-- CARGO CARD 2 -->
  <rect x="16" y="422" width="343" height="100" rx="12" fill="#FFFFFF" filter="url(#shadow)"/>
  <rect x="16" y="422" width="343" height="4" rx="12 12 0 0" fill="url(#greenGradient)"/>

  <rect x="28" y="438" width="55" height="22" rx="11" fill="#E8F5E9"/>
  <text x="55" y="453" font-family="Arial" font-size="9" font-weight="600" text-anchor="middle" fill="#4CAF50">OPEN</text>

  <rect x="272" y="434" width="78" height="28" rx="8" fill="#FF6B00"/>
  <text x="311" y="453" font-family="Arial" font-size="12" font-weight="700" text-anchor="middle" fill="#FFF">₱120,000</text>

  <text x="28" y="480" font-family="Arial" font-size="13" font-weight="600" fill="#1a1a1a">Fresh Farms Inc.</text>
  <text x="130" y="480" font-family="Arial" font-size="13" fill="#666">• 15 tons</text>

  <circle cx="34" cy="502" r="5" fill="#4CAF50"/>
  <text x="44" y="506" font-family="Arial" font-size="11" fill="#333">Cebu City</text>
  <text x="100" y="506" font-family="Arial" font-size="11" fill="#FF6B00">→</text>
  <circle cx="115" cy="502" r="5" fill="#F44336"/>
  <text x="125" y="506" font-family="Arial" font-size="11" fill="#333">Davao</text>
  <text x="220" y="506" font-family="Arial" font-size="10" fill="#888">587km • 12hrs •</text>
  <text x="310" y="506" font-family="Arial" font-size="10" fill="#888">0 bids</text>

  <!-- CARGO CARD 3 -->
  <rect x="16" y="534" width="343" height="100" rx="12" fill="#FFFFFF" filter="url(#shadow)"/>
  <rect x="16" y="534" width="343" height="4" rx="12 12 0 0" fill="url(#blueGradient)"/>

  <rect x="28" y="550" width="65" height="22" rx="11" fill="#E3F2FD"/>
  <text x="60" y="565" font-family="Arial" font-size="9" font-weight="600" text-anchor="middle" fill="#2196F3">WAITING</text>

  <rect x="280" y="546" width="70" height="28" rx="8" fill="#FF6B00"/>
  <text x="315" y="565" font-family="Arial" font-size="12" font-weight="700" text-anchor="middle" fill="#FFF">₱95,000</text>

  <text x="28" y="592" font-family="Arial" font-size="13" font-weight="600" fill="#1a1a1a">Metro Supplies</text>
  <text x="125" y="592" font-family="Arial" font-size="13" fill="#666">• 18 tons</text>

  <circle cx="34" cy="614" r="5" fill="#4CAF50"/>
  <text x="44" y="618" font-family="Arial" font-size="11" fill="#333">Manila</text>
  <text x="80" y="618" font-family="Arial" font-size="11" fill="#FF6B00">→</text>
  <circle cx="95" cy="614" r="5" fill="#F44336"/>
  <text x="105" y="618" font-family="Arial" font-size="11" fill="#333">Iloilo</text>
  <text x="200" y="618" font-family="Arial" font-size="10" fill="#888">580km • 15hrs •</text>
  <text x="295" y="618" font-family="Arial" font-size="10" font-weight="600" fill="#FF6B00">1 bid</text>

  <!-- CARGO CARD 4 (Partial) -->
  <rect x="16" y="646" width="343" height="70" rx="12" fill="#FFFFFF" filter="url(#shadow)"/>
  <rect x="16" y="646" width="343" height="4" rx="12 12 0 0" fill="url(#greenGradient)"/>

  <rect x="28" y="662" width="55" height="22" rx="11" fill="#E8F5E9"/>
  <text x="55" y="677" font-family="Arial" font-size="9" font-weight="600" text-anchor="middle" fill="#4CAF50">OPEN</text>
  <text x="170" y="695" font-family="Arial" font-size="11" fill="#999">+ more cargo below...</text>

  <!-- Bottom Navigation - TRUCKER -->
  <rect y="732" width="375" height="80" fill="#FFFFFF"/>
  <line x1="0" y1="732" x2="375" y2="732" stroke="#E0E0E0" stroke-width="1"/>

  <!-- Home (Active) -->
  <g>
    <text x="37" y="762" font-family="Arial" font-size="20" text-anchor="middle">🏠</text>
    <text x="37" y="780" font-family="Arial" font-size="10" font-weight="600" text-anchor="middle" fill="#FF6B00">Home</text>
    <circle cx="37" cy="788" r="3" fill="#FF6B00"/>
  </g>

  <!-- My Bids -->
  <g>
    <text x="112" y="762" font-family="Arial" font-size="20" text-anchor="middle">📦</text>
    <text x="112" y="780" font-family="Arial" font-size="10" text-anchor="middle" fill="#888">My Bids</text>
    <!-- Badge for pending bids -->
    <circle cx="125" cy="752" r="8" fill="#10B981"/>
    <text x="125" y="756" font-family="Arial" font-size="8" font-weight="600" text-anchor="middle" fill="#FFF">3</text>
  </g>

  <!-- Post Truck Button (FAB) -->
  <g>
    <circle cx="187" cy="745" r="28" fill="url(#orangeGradient)"/>
    <text x="187" y="752" font-family="Arial" font-size="24" font-weight="300" text-anchor="middle" fill="#FFF">+</text>
    <text x="187" y="785" font-family="Arial" font-size="10" text-anchor="middle" fill="#888">Post</text>
  </g>

  <!-- Chat -->
  <g>
    <text x="262" y="762" font-family="Arial" font-size="20" text-anchor="middle">💬</text>
    <text x="262" y="780" font-family="Arial" font-size="10" text-anchor="middle" fill="#888">Chat</text>
    <circle cx="275" cy="752" r="8" fill="#EF4444"/>
    <text x="275" y="756" font-family="Arial" font-size="8" font-weight="600" text-anchor="middle" fill="#FFF">4</text>
  </g>

  <!-- Track / Routes -->
  <g>
    <text x="337" y="762" font-family="Arial" font-size="20" text-anchor="middle">🗺️</text>
    <text x="337" y="780" font-family="Arial" font-size="10" text-anchor="middle" fill="#888">Routes</text>
  </g>

  <!-- Home Indicator -->
  <rect x="120" y="800" width="135" height="5" rx="2.5" fill="#000"/>

  <!-- Label: TRUCKER VIEW -->
  <rect x="120" y="10" width="135" height="24" rx="12" fill="#10B981"/>
  <text x="187" y="26" font-family="Arial" font-size="11" font-weight="600" text-anchor="middle" fill="#FFF">TRUCKER VIEW</text>

  <!-- Defs -->
  <defs>
    <linearGradient id="orangeGradient" x1="0%" y1="0%" x2="100%" y2="0%">
      <stop offset="0%" style="stop-color:#FF6B00"/>
      <stop offset="100%" style="stop-color:#FF9500"/>
    </linearGradient>
    <linearGradient id="greenGradient" x1="0%" y1="0%" x2="100%" y2="0%">
      <stop offset="0%" style="stop-color:#4CAF50"/>
      <stop offset="100%" style="stop-color:#8BC34A"/>
    </linearGradient>
    <linearGradient id="blueGradient" x1="0%" y1="0%" x2="100%" y2="0%">
      <stop offset="0%" style="stop-color:#2196F3"/>
      <stop offset="100%" style="stop-color:#03A9F4"/>
    </linearGradient>
    <filter id="shadow" x="-10%" y="-10%" width="120%" height="130%">
      <feDropShadow dx="0" dy="2" stdDeviation="4" flood-opacity="0.1"/>
    </filter>
  </defs>
</svg>